<?xml version="1.0" standalone="no"?><!DOCTYPE svg PUBLIC "-//W3C//DTD SVG 1.1//EN" "http://www.w3.org/Graphics/SVG/1.1/DTD/svg11.dtd"><svg class="icon" width="200px" height="200.00px" viewBox="0 0 1024 1024" version="1.1" xmlns="http://www.w3.org/2000/svg"><path d="M792.1 238.2H350.7V123.8c0-13.8-11.2-25-25-25H98.1c-13.8 0-25 11.2-25 25V201c0 20.5 16.6 37.2 37.2 37.2h62.2l7.3 67.4 31.3 342.5c1.8 19.1 17.8 33.8 37 33.8h510c19.2 0 35.3-14.6 37-33.8l34.1-372.7c0.1-20.5-16.6-37.2-37.1-37.2z" fill="#ff5777" /><path d="M703 837.5m-88.3 0a88.3 88.3 0 1 0 176.6 0 88.3 88.3 0 1 0-176.6 0Z" fill="#ff5777" /><path d="M333.7 837.5m-88.3 0a88.3 88.3 0 1 0 176.6 0 88.3 88.3 0 1 0-176.6 0Z" fill="#ff5777" /></svg>